<svg id="Layer_1" data-name="Layer 1" xmlns="http://www.w3.org/2000/svg" width="136" height="136" viewBox="0 0 136 136"><path d="M67.9764,28.7636A18.0387,18.0387,0,0,0,49.9377,46.8023H86.0151A18.0387,18.0387,0,0,0,67.9764,28.7636Z" fill="#fff" stroke="#010101" stroke-miterlimit="10" stroke-width="3"/><polyline points="49.938 46.882 31.578 46.882 31.578 101.726 27.816 101.726 27.816 107.525 108.201 107.525 108.201 101.726 104.46 101.726 104.46 46.882 86.015 46.882" fill="#fff" stroke="#010101" stroke-miterlimit="10" stroke-width="3"/><circle cx="67.9764" cy="46.8023" r="18.0387" fill="#fff" stroke="#010101" stroke-miterlimit="10" stroke-width="2"/><polyline points="86.015 46.882 104.46 46.882 104.46 101.726 56.458 101.726 31.578 101.726 31.578 46.882 49.938 46.882" fill="none" stroke="#010101" stroke-miterlimit="10"/><line x1="51.2766" y1="53.7113" x2="31.5781" y2="53.7113" fill="none" stroke="#010101" stroke-miterlimit="10"/><line x1="84.6762" y1="53.7113" x2="104.4601" y2="53.7113" fill="none" stroke="#010101" stroke-miterlimit="10"/><rect x="27.8163" y="101.7256" width="80.385" height="5.7994" fill="none" stroke="#010101" stroke-miterlimit="10"/><rect x="38.2005" y="69.4751" width="13.0761" height="22.4694" fill="none" stroke="#010101" stroke-miterlimit="10"/><rect x="85.0605" y="69.4751" width="13.0761" height="22.4694" fill="none" stroke="#010101" stroke-miterlimit="10"/><rect x="58.9341" y="69.4751" width="18.0847" height="32.2506" fill="none" stroke="#010101" stroke-miterlimit="10"/><polygon points="68.06 56.136 78.471 53.174 78.471 40.207 68.065 42.632 57.482 40.207 57.482 53.174 68.06 56.136" fill="none" stroke="#010101" stroke-miterlimit="10" stroke-width="2"/><line x1="68.0653" y1="42.632" x2="68.0596" y2="56.1358" fill="none" stroke="#010101" stroke-miterlimit="10" stroke-width="2"/><circle cx="62.6145" cy="86.9304" r="1.1789" fill="#010101"/></svg>